<?xml version="1.0" encoding="UTF-8" standalone="no"?>
<!-- Created with Inkscape (http://www.inkscape.org/) -->
<svg
   xmlns:dc="http://purl.org/dc/elements/1.1/"
   xmlns:cc="http://creativecommons.org/ns#"
   xmlns:rdf="http://www.w3.org/1999/02/22-rdf-syntax-ns#"
   xmlns:svg="http://www.w3.org/2000/svg"
   xmlns="http://www.w3.org/2000/svg"
   xmlns:sodipodi="http://sodipodi.sourceforge.net/DTD/sodipodi-0.dtd"
   xmlns:inkscape="http://www.inkscape.org/namespaces/inkscape"
   width="1810.5719"
   height="3266.3406"
   id="svg2"
   sodipodi:version="0.32"
   inkscape:version="0.46"
   sodipodi:docname="silhueta Eric 1.svg"
   inkscape:output_extension="org.inkscape.output.svg.inkscape"
   version="1.0">
  <defs
     id="defs4">
    <inkscape:perspective
       sodipodi:type="inkscape:persp3d"
       inkscape:vp_x="0 : 526.18109 : 1"
       inkscape:vp_y="0 : 1000 : 0"
       inkscape:vp_z="744.09448 : 526.18109 : 1"
       inkscape:persp3d-origin="372.04724 : 350.78739 : 1"
       id="perspective10" />
    <inkscape:perspective
       id="perspective2390"
       inkscape:persp3d-origin="372.04724 : 350.78739 : 1"
       inkscape:vp_z="744.09448 : 526.18109 : 1"
       inkscape:vp_y="0 : 1000 : 0"
       inkscape:vp_x="0 : 526.18109 : 1"
       sodipodi:type="inkscape:persp3d" />
  </defs>
  <sodipodi:namedview
     id="base"
     pagecolor="#ffffff"
     bordercolor="#666666"
     borderopacity="1.0"
     inkscape:pageopacity="0.0"
     inkscape:pageshadow="2"
     inkscape:zoom="0.1475"
     inkscape:cx="344.26326"
     inkscape:cy="1696.7377"
     inkscape:document-units="px"
     inkscape:current-layer="layer1"
     showgrid="false"
     inkscape:window-width="1280"
     inkscape:window-height="719"
     inkscape:window-x="0"
     inkscape:window-y="22" />
  <metadata
     id="metadata7">
    <rdf:RDF>
      <cc:Work
         rdf:about="">
        <dc:format>image/svg+xml</dc:format>
        <dc:type
           rdf:resource="http://purl.org/dc/dcmitype/StillImage" />
      </cc:Work>
    </rdf:RDF>
  </metadata>
  <g
     inkscape:label="Camada 1"
     inkscape:groupmode="layer"
     id="layer1"
     transform="translate(3835.074,1342.0291)">
    <path
       style="opacity:1;fill:#000000;fill-opacity:1;stroke:#000000;stroke-width:3;stroke-miterlimit:4;stroke-dasharray:none;stroke-dashoffset:0;stroke-opacity:1"
       d="M -3392.1348,1802.3754 C -3392.1923,1816.368 -3392.5313,1835.5718 -3388.0942,1848.8424 C -3384.468,1859.6879 -3375.0105,1872.218 -3367.8912,1881.1673 C -3359.3533,1891.8998 -3347.1338,1906.1252 -3335.5662,1913.4922 C -3329.5825,1917.303 -3320.3294,1920.3426 -3313.3429,1921.5734 C -3304.9863,1923.0456 -3293.3463,1923.3937 -3285.0586,1921.5734 C -3276.5827,1919.7118 -3265.9974,1914.2916 -3258.7946,1909.4515 C -3248.4726,1902.5154 -3235.5656,1891.3942 -3228.4901,1881.1673 C -3222.1503,1872.0038 -3217.4833,1857.5148 -3214.3479,1846.8221 C -3212.4412,1840.3196 -3211.0198,1832.5005 -3210.3073,1824.5987 C -3209.5948,1816.6969 -3209.466,1803.3465 -3210.3073,1794.2942 C -3211.2204,1784.4701 -3214.4253,1771.6426 -3216.3682,1761.9693 C -3218.0771,1753.4613 -3221.0391,1742.2509 -3222.4291,1733.685 C -3223.3082,1728.2675 -3224.6392,1720.9874 -3224.4494,1715.5023 C -3224.215,1708.73 -3223.0597,1699.5152 -3220.4088,1693.2789 C -3213.1046,1676.0958 -3195.5839,1657.4487 -3184.0433,1642.7713 C -3177.1356,1633.986 -3166.0691,1623.7386 -3159.7997,1614.487 C -3143.679,1590.6979 -3140.8752,1578.6933 -3115.353,1529.6342 C -3089.8308,1480.575 -3027.4535,1360.0409 -2990.0941,1287.1976 C -2938.8827,1187.3456 -2857.4966,1019.8331 -2820.3884,953.84718 C -2783.2802,887.86124 -2773.9035,875.02281 -2751.6981,842.73043 C -2742.6317,829.54554 -2730.5532,811.75172 -2719.3732,800.30403 C -2711.2386,791.97461 -2699.6644,780.88522 -2689.0686,776.06037 C -2682.9015,773.25218 -2673.5004,770.74416 -2666.8452,772.01976 C -2661.2296,773.09611 -2653.9027,777.40373 -2650.6828,782.12128 C -2605.7839,847.90287 -2567.8735,920.7498 -2527.4442,990.21268 C -2496.1828,1044.8304 -2454.3174,1117.6459 -2426.4289,1174.0605 C -2403.8208,1219.7937 -2383.8991,1285.8258 -2357.7386,1329.624 C -2354.195,1335.5568 -2347.6371,1342.2006 -2343.5964,1347.8067 C -2342.3186,1349.5795 -2340.0841,1351.7471 -2339.5558,1353.8676 C -2338.0833,1359.7781 -2341.2727,1367.9871 -2341.5761,1374.0707 C -2341.9384,1381.3348 -2341.5761,1391.0413 -2341.5761,1398.3144 C -2341.5761,1403.1631 -2343.1497,1409.8905 -2341.5761,1414.4768 C -2339.3334,1421.0132 -2332.5714,1428.0376 -2327.434,1432.6595 C -2312.0547,1446.4955 -2285.9248,1457.3527 -2268.8451,1469.025 C -2253.8331,1479.2842 -2234.2149,1493.6179 -2220.3578,1505.3905 C -2204.3504,1518.9899 -2189.2094,1545.9574 -2169.8502,1553.8778 C -2143.0336,1564.8492 -2108.3058,1570.2815 -2078.9365,1572.0606 C -2066.779,1572.797 -2048.6832,1574.7527 -2038.5304,1568.02 C -2032.2013,1563.8229 -2027.9374,1554.0391 -2026.4085,1545.7966 C -2024.8797,1537.5541 -2027.9807,1524.3254 -2030.4491,1515.492 C -2033.2977,1505.2976 -2039.7072,1492.5579 -2044.5913,1483.1672 C -2052.1215,1468.6888 -2063.867,1450.3 -2072.8755,1436.7001 C -2089.1278,1412.1643 -2112.662,1394.1346 -2131.4644,1372.0504 C -2136.0141,1365.9698 -2139.7383,1356.3743 -2143.5862,1349.827 C -2150.4873,1338.0845 -2162.1385,1321.1853 -2167.8299,1311.4412 C -2173.5213,1301.697 -2180.6168,1292.9326 -2181.972,1285.1773 C -2186.0046,1262.1001 -2194.4798,1262.0296 -2204.1954,1244.7712 C -2218.6807,1219.0399 -2218.6028,1176.9183 -2223.6784,1147.7965 C -2236.6008,1073.6528 -2252.7458,1017.8141 -2278.9467,949.80658 C -2322.6002,836.49891 -2324.9664,714.0062 -2367.8401,602.31413 C -2380.2884,571.81131 -2392.1765,541.36357 -2400.165,509.38008 C -2401.807,502.80583 -2403.5971,493.90566 -2404.2056,487.15673 C -2404.641,482.32759 -2402.0472,476.67134 -2404.2056,470.99429 C -2406.364,465.31724 -2418.1805,459.45718 -2420.368,452.81154 C -2422.5555,446.1659 -2418.8476,437.24009 -2418.3477,430.58819 C -2417.4647,418.83868 -2425.03,418.71496 -2428.4492,410.38513 C -2438.2924,386.40508 -2421.5191,375.64986 -2412.2868,355.83691 C -2405.5196,341.31406 -2404.7221,319.15432 -2402.1853,303.30897 C -2398.418,279.77759 -2394.5627,248.21884 -2392.0838,224.51708 C -2389.7435,202.14015 -2387.6195,172.20804 -2386.0228,149.76579 C -2383.9112,120.08672 -2379.5229,80.521685 -2379.9619,50.770835 C -2380.1595,37.383295 -2382.2179,19.593655 -2384.0025,6.3241253 C -2386.3002,-10.761085 -2388.8999,-33.809695 -2394.1041,-50.244425 C -2397.1328,-59.808945 -2408.2462,-72.467775 -2408.2462,-80.548995 C -2408.2462,-88.630215 -2411.6804,-121.52988 -2412.2868,-139.13784 C -2412.6832,-150.64676 -2411.386,-166.04318 -2412.2868,-177.52364 C -2413.1987,-189.14632 -2415.3766,-204.63596 -2418.3477,-215.90943 C -2422.3068,-230.93184 -2430.9179,-249.9107 -2436.5305,-264.39676 C -2441.2472,-276.57056 -2444.5561,-294.59298 -2452.6929,-304.80286 C -2458.6655,-312.29718 -2470.5885,-318.31588 -2478.9569,-322.9856 C -2488.2001,-328.14347 -2501.3087,-333.58105 -2511.2818,-337.12774 C -2521.95,-340.92163 -2537.2846,-342.66642 -2547.6472,-347.22926 C -2552.8802,-349.53346 -2559.006,-354.22937 -2563.8097,-357.33079 C -2565.6456,-358.51611 -2568.0117,-360.22252 -2569.8706,-361.3714 C -2574.0273,-363.94037 -2584.0127,-369.45262 -2584.0127,-369.45262 C -2554.7687,-403.25252 -2533.7217,-440.96639 -2517.3427,-474.50851 C -2509.4355,-490.70141 -2502.2046,-513.78308 -2497.1396,-531.07698 C -2494.8668,-538.83728 -2490.4578,-549.27858 -2491.0787,-557.34098 C -2491.3293,-560.59528 -2492.4166,-565.61268 -2495.1193,-567.44248 C -2496.6249,-568.46188 -2501.1802,-567.44248 -2501.1802,-567.44248 L -2505.2208,-565.42218 C -2482.9997,-630.17808 -2480.6864,-736.58998 -2533.6946,-786.77448 C -2561.7146,-813.30188 -2615.972,-829.47778 -2654.7234,-831.89938 C -2684.658,-833.76998 -2723.8855,-818.30198 -2743.6168,-809.73698 C -2763.3481,-801.17198 -2769.5727,-790.91038 -2777.962,-781.49328 C -2788.0652,-770.15228 -2796.9488,-741.29648 -2802.2057,-727.04658 C -2810.3519,-704.96498 -2815.9306,-673.68478 -2818.3681,-650.27498 C -2819.5607,-638.82118 -2818.3681,-611.88918 -2818.3681,-611.88918 C -2818.3681,-611.88918 -2834.1804,-615.83688 -2840.5915,-613.90948 C -2844.308,-612.79218 -2849.0119,-609.32608 -2850.693,-605.82828 C -2854.8938,-597.08788 -2851.3804,-583.17648 -2850.693,-573.50338 C -2849.7816,-560.67858 -2848.4657,-543.34928 -2844.6321,-531.07698 C -2842.2075,-523.31528 -2838.6533,-512.16118 -2832.5103,-506.83338 C -2828.1665,-503.06598 -2814.3275,-500.77238 -2814.3275,-500.77238 L -2804.226,-504.81298 C -2804.226,-504.81298 -2804.226,-487.84251 -2804.226,-480.56941 C -2804.226,-469.65981 -2804.226,-455.11356 -2804.226,-444.20391 C -2804.226,-439.96127 -2800.8819,-432.67274 -2804.226,-430.06177 C -2808.1654,-426.98597 -2816.1235,-431.49653 -2820.3884,-434.10238 C -2831.384,-440.82077 -2837.5663,-455.91322 -2848.6727,-466.42721 C -2859.7791,-476.94121 -2876.1123,-488.45731 -2895.1397,-502.79268 C -2914.1671,-517.12808 -2949.3157,-547.69918 -2975.9519,-561.38158 C -3001.5248,-574.51778 -3041.0396,-579.05508 -3066.8657,-591.68618 C -3078.6442,-597.44688 -3092.4869,-608.41448 -3103.2311,-615.92978 C -3112.4694,-622.39178 -3133.5357,-638.15318 -3133.5357,-638.15318 C -3133.5357,-638.15318 -3184.6382,-687.65278 -3208.287,-706.84358 C -3216.384,-713.41418 -3236.5713,-727.04658 -3236.5713,-727.04658 C -3236.5713,-727.04658 -3261.7035,-759.83288 -3272.9368,-773.51358 C -3291.2093,-795.76708 -3315.6171,-825.48078 -3335.5662,-846.24458 C -3352.7979,-864.18008 -3377.9822,-885.85368 -3396.1754,-902.81308 C -3413.742,-919.18838 -3454.7643,-957.36138 -3454.7643,-957.36138 L -3531.5359,-1030.0924 C -3531.5359,-1030.0924 -3567.8172,-1061.4954 -3586.0841,-1070.4985 C -3590.0419,-1072.4492 -3596.7252,-1071.8536 -3600.2262,-1074.5391 C -3611.4427,-1083.143 -3618.0744,-1102.3383 -3624.4699,-1114.9452 C -3630.1228,-1126.0882 -3635.4112,-1141.9792 -3640.6323,-1153.331 C -3645.7291,-1164.4125 -3652.1849,-1179.4585 -3658.8151,-1189.6965 C -3663.4975,-1196.9269 -3671.5243,-1205.2681 -3676.9978,-1211.9198 C -3691.4947,-1229.5372 -3710.7876,-1253.0584 -3725.4852,-1270.5087 C -3732.6847,-1279.0565 -3742.4557,-1290.3076 -3749.7288,-1298.7929 C -3757.0019,-1307.2782 -3765.1637,-1320.1995 -3773.9725,-1327.0772 C -3777.1772,-1329.5793 -3782.1373,-1332.204 -3786.0943,-1333.1381 C -3789.0437,-1333.8344 -3793.396,-1334.2978 -3796.1958,-1333.1381 C -3798.5715,-1332.1541 -3802.2567,-1327.0772 -3802.2567,-1327.0772 C -3802.2567,-1327.0772 -3807.0754,-1337.4529 -3810.338,-1339.199 C -3813.6007,-1340.9451 -3816.5245,-1340.9996 -3820.4395,-1339.199 C -3824.3545,-1337.3984 -3830.7255,-1330.328 -3832.5613,-1325.0569 C -3839.2024,-1305.9888 -3811.4668,-1279.6711 -3799.1924,-1263.7969 L -3784.074,-1244.2447 L -3763.871,-1215.9604 L -3761.8506,-1215.9604 C -3761.8506,-1215.9604 -3773.27,-1216.967 -3778.0131,-1215.9604 C -3783.8524,-1214.7212 -3791.7029,-1211.8093 -3796.1958,-1207.8792 C -3803.1592,-1201.788 -3809.4379,-1190.3938 -3812.3583,-1181.6152 C -3814.4715,-1175.263 -3814.1362,-1166.08 -3814.3786,-1159.3919 C -3815.5354,-1127.4695 -3809.5064,-1122.9802 -3784.074,-1106.864 C -3775.8197,-1101.6333 -3764.4063,-1095.3129 -3755.7897,-1090.7015 C -3748.6203,-1086.8646 -3738.4442,-1084.0431 -3731.5461,-1078.5797 C -3724.648,-1073.1163 -3718.4376,-1060.605 -3711.343,-1054.336 C -3703.7839,-1047.6566 -3691.7589,-1041.2584 -3683.0587,-1036.1533 C -3674.1721,-1030.9388 -3660.205,-1027.1076 -3652.7542,-1019.9908 C -3636.4432,-1004.4111 -3633.1496,-981.39518 -3614.3684,-955.34108 C -3595.5871,-929.28698 -3549.859,-882.53408 -3523.4546,-850.28518 C -3508.4014,-831.90008 -3491.2216,-804.98808 -3474.9673,-787.65578 C -3456.168,-767.60958 -3427.0141,-745.08098 -3406.277,-727.04658 C -3393.6277,-716.04588 -3373.6612,-698.43308 -3363.8505,-690.68108 C -3354.0398,-682.92908 -3350.672,-679.29798 -3345.0169,-672.82378 C -3339.3618,-666.34958 -3331.2491,-656.37338 -3327.485,-648.25468 C -3319.8156,-631.71298 -3313.8417,-607.77438 -3305.2617,-591.68618 C -3287.2235,-557.86298 -3232.5307,-486.63031 -3232.5307,-486.63031 C -3238.3858,-461.08111 -3248.4381,-436.06844 -3250.7134,-409.85872 C -3251.5583,-400.12607 -3247.9506,-385.40778 -3246.6728,-377.53384 C -3245.395,-369.6599 -3247.3452,-362.92047 -3242.6322,-357.33079 C -3237.9192,-351.74111 -3224.1578,-350.4831 -3216.3682,-347.22926 C -3197.3451,-339.28304 -3171.2117,-329.88661 -3153.7388,-318.94499 C -3130.1402,-300.7781 -3106.1958,-281.3663 -3087.0687,-258.33584 C -3078.7613,-247.27355 -3067.6999,-231.43775 -3064.8453,-217.92974 C -3054.7817,-170.30888 -3048.5596,-121.1861 -3044.6423,-72.467775 C -3036.272,31.631165 -3027.3104,130.50315 -3040.6017,234.6186 C -3040.6017,234.6186 -3050.9016,300.91331 -3052.7235,329.57294 C -3054.5692,358.60673 -3052.7235,397.45519 -3052.7235,426.54758 C -3052.7235,448.36688 -3051.7348,477.48168 -3052.7235,499.27856 C -3053.6336,519.34143 -3054.7781,546.26878 -3058.7844,565.94863 C -3062.3403,583.41605 -3071.971,605.40701 -3076.9672,622.51718 C -3093.1677,677.99862 -3099.949,735.15113 -3107.2718,792.22281 C -3109.9989,813.47694 -3111.8396,842.23176 -3117.3733,862.93348 C -3121.5877,878.69943 -3131.3311,898.36383 -3137.5763,913.44108 C -3148.1748,939.02805 -3161.2071,973.71883 -3173.9418,998.29388 C -3194.4396,1037.85 -3210.1007,1079.4691 -3224.4494,1121.5326 C -3234.4768,1150.9282 -3245.5677,1190.8582 -3254.754,1220.5275 C -3273.3509,1280.5903 -3299.2745,1360.3259 -3317.3835,1420.5377 C -3326.8308,1451.9496 -3338.7934,1494.0207 -3347.6881,1525.5936 C -3354.5062,1549.7952 -3363.8489,1582.004 -3369.9115,1606.4058 C -3373.9535,1622.6749 -3379.1045,1644.4482 -3382.0333,1660.954 C -3385.2381,1679.0155 -3389.3812,1703.2342 -3390.1145,1721.5632 C -3390.5755,1733.0857 -3387.8499,1748.4199 -3388.0942,1759.949 C -3388.365,1772.7316 -3392.0823,1789.59 -3392.1348,1802.3754 z"
       id="path2396"
       sodipodi:nodetypes="csssssssszssssssszszssssscssssssssssssszssscszsssscsszzsssssssssssssssssssssssssccsszssscsssssccssssssssscscsssccsssssssssssczzsscccsssssszssszssszzsssszcsccsssssssssssssssssssss" />
  </g>
</svg>
