<?xml version="1.0" encoding="utf-8"?>
<!-- Generator: Adobe Illustrator 18.0.0, SVG Export Plug-In . SVG Version: 6.00 Build 0)  -->
<!DOCTYPE svg PUBLIC "-//W3C//DTD SVG 1.1//EN" "http://www.w3.org/Graphics/SVG/1.1/DTD/svg11.dtd">
<svg version="1.1" id="Layer_1" xmlns="http://www.w3.org/2000/svg" xmlns:xlink="http://www.w3.org/1999/xlink" x="0px" y="0px"
	 viewBox="0 0 289.1 290" enable-background="new 0 0 289.1 290" xml:space="preserve">
<g>
	<g>
		<path fill="#FFFFFF" d="M-0.2,291.2c0-96.9,0-193.9,0-290.9c96.8,0,193.7,0,290.8,0c0,96.9,0,193.9,0,290.9
			C193.7,291.2,96.8,291.2-0.2,291.2z M88.7,44.4c1.9,8.1-1.3,14.8-7.5,19.8C76,68.5,69.5,73.1,67.2,79c-3.9,9.8-2,20.7,4.4,29.4
			c4.3,5.9,10.3,10.7,16.1,15.4c4.4,3.6,6.6,7.4,7.2,13.3c1.3,13.5,3.1,27.1,5.7,40.4c2.8,14.4,1.6,28.2-4.4,41.3
			c-5,11-4.6,21.9-2.3,33.2c0.3,1.3,2.2,2.3,3.4,3.4c0.9-1.4,2.5-2.7,2.5-4.1c-0.1-6,2.4-10.6,6.5-14.6c2.6-2.5,3.3-4.4,0.4-7.5
			c-1.4-1.5-1.8-5-1.1-7.1c1.6-5.2,4-10.2,6.4-15.1c3.9-8.1,4.7-16.4,3.3-25.2c-0.8-5.3-0.7-10.8-0.4-16.2
			c0.8-15.5,2.7-31.1-1.8-46.3c14.9-8.4,31.8-12.6,45.8-22.5c0.3-0.2,0.7-0.1,1-0.2c4.6-1.9,9.3-3.5,13.7-5.7
			c6.2-3.1,11.8-8.2,18.4-9.8c11.3-2.8,18.2-10.6,25.1-18.6c1.2-1.3,0.7-4.1,1-6.2c-2.1,0-4.9-0.8-6.3,0.2
			c-4.7,3.4-8.8,7.6-13.2,11.3c-2.4,2-4.8,4.4-7.6,5.3c-11.5,3.7-23.1,7-34.7,10.3c-0.8,0.2-1.9-0.1-2.8-0.4
			c-11.2-3.6-22.4-7.2-34.9-11.2c9.5-1.9,18-4.6,26,3.7c0.1-0.5,0.2-1,0.4-1.6c-0.6-1-1.1-2-1.6-2.9c5.4-4.1,9.2,2,13.9,2.5
			c0.4-0.5,0.7-1.1,1.1-1.6c-1.4-0.5-2.8-1.1-4.7-1.8c2.1-0.9,3.1-1.3,4-1.7c0-0.3,0-0.6-0.1-0.9c-12.8-2.1-25.7-4.1-38.8-6.3
			c0.2-2,0.9-3.9,0.5-5.5c-0.8-3.3-1.4-8-3.6-9.2c-5.5-3-11.8-5.1-18-6.2C95,39.6,91.8,42.7,88.7,44.4z"/>
		<path d="M88.7,44.4c3.1-1.6,6.3-4.8,8.8-4.4c6.2,1.1,12.5,3.2,18,6.2c2.2,1.2,2.8,5.9,3.6,9.2c0.4,1.6-0.3,3.5-0.5,5.5
			c13.2,2.1,26,4.2,38.8,6.3c0,0.3,0,0.6,0.1,0.9c-0.9,0.4-1.9,0.8-4,1.7c1.9,0.7,3.3,1.3,4.7,1.8c-0.4,0.5-0.7,1.1-1.1,1.6
			c-4.7-0.6-8.5-6.6-13.9-2.5c0.5,0.9,1,1.9,1.6,2.9c-0.1,0.5-0.2,1-0.4,1.6c-8-8.4-16.4-5.6-26-3.7c12.5,4,23.7,7.7,34.9,11.2
			c0.9,0.3,2,0.6,2.8,0.4c11.6-3.3,23.2-6.6,34.7-10.3c2.8-0.9,5.2-3.3,7.6-5.3c4.5-3.7,8.6-7.9,13.2-11.3c1.4-1,4.2-0.2,6.3-0.2
			c-0.3,2.1,0.2,4.9-1,6.2c-6.9,8-13.8,15.8-25.1,18.6c-6.5,1.6-12.2,6.7-18.4,9.8c-4.4,2.2-9.1,3.9-13.7,5.7
			c-0.3,0.1-0.7,0.1-1,0.2c-14.1,9.9-31,14.1-45.8,22.5c4.5,15.3,2.6,30.8,1.8,46.3c-0.3,5.4-0.4,10.9,0.4,16.2
			c1.3,8.8,0.5,17.2-3.3,25.2c-2.4,4.9-4.7,9.9-6.4,15.1c-0.7,2.1-0.3,5.6,1.1,7.1c2.9,3.1,2.2,5-0.4,7.5c-4.1,4-6.6,8.6-6.5,14.6
			c0,1.4-1.6,2.7-2.5,4.1c-1.2-1.1-3.1-2.1-3.4-3.4c-2.2-11.2-2.6-22.2,2.3-33.2c5.9-13.1,7.2-26.9,4.4-41.3
			c-2.6-13.3-4.4-26.9-5.7-40.4c-0.6-5.9-2.7-9.7-7.2-13.3c-5.8-4.7-11.8-9.5-16.1-15.4c-6.3-8.7-8.2-19.6-4.4-29.4
			c2.3-5.9,8.8-10.5,14.1-14.8C87.5,59.2,90.7,52.5,88.7,44.4z M113.8,95.1c1.5,0.1,2.5,0.4,3.4,0.2c8.8-1.4,17.7-2.9,26.5-4.4
			c0.8-0.1,1.6-0.7,2.1-1.2c0.9-1,2.5-2.3,2.3-3.2c-0.3-1.1-1.9-2.4-3.1-2.6c-9.1-1.8-18.2-3.4-27.5-5.1
			C116.3,84.4,115.1,89.6,113.8,95.1z"/>
		<path fill="#FFFFFF" d="M113.8,95.1c1.3-5.5,2.5-10.7,3.8-16.3c9.4,1.7,18.5,3.3,27.5,5.1c1.2,0.2,2.9,1.5,3.1,2.6
			c0.2,0.8-1.4,2.2-2.3,3.2c-0.6,0.6-1.4,1.1-2.1,1.2c-8.8,1.5-17.7,3-26.5,4.4C116.3,95.5,115.3,95.2,113.8,95.1z"/>
	</g>
</g>
</svg>
